<svg width="23" height="23" viewBox="0 0 23 23" fill="none" xmlns="http://www.w3.org/2000/svg">
<path d="M20 0H2.5C1.125 0 0 1.125 0 2.5V20C0 21.375 1.125 22.5 2.5 22.5H20C21.375 22.5 22.5 21.375 22.5 20V2.5C22.5 1.125 21.375 0 20 0ZM11.2625 18.75C10.3875 18.75 9.6875 18.05 9.6875 17.175C9.6875 16.2875 10.3875 15.6125 11.2625 15.6125C12.15 15.6125 12.825 16.2875 12.825 17.175C12.8125 18.0375 12.15 18.75 11.2625 18.75ZM15.025 9.5C14.075 10.8875 13.175 11.325 12.6875 12.2125C12.4875 12.575 12.4125 12.8125 12.4125 13.975H10.1375C10.1375 13.3625 10.0375 12.3625 10.525 11.5C11.1375 10.4125 12.3 9.7625 12.975 8.8C13.6875 7.7875 13.2875 5.8875 11.2625 5.8875C9.9375 5.8875 9.2875 6.8875 9.0125 7.7375L6.95 6.8625C7.5125 5.1875 9.025 3.75 11.2375 3.75C13.0875 3.75 14.35 4.5875 15 5.65C15.55 6.55 15.875 8.2375 15.025 9.5Z" fill="#333333"/>
</svg>
