<svg width="140" height="140" viewBox="0 0 140 140" fill="none" xmlns="http://www.w3.org/2000/svg">
<circle cx="69.6111" cy="69.6111" r="69.6111" fill="#E0DDFF"/>
<mask id="mask0" mask-type="alpha" maskUnits="userSpaceOnUse" x="0" y="0" width="140" height="140">
<ellipse cx="70" cy="69.6111" rx="70" ry="69.6111" fill="#FFEDEF"/>
</mask>
<g mask="url(#mask0)">
<g clip-path="url(#clip0)">
<path d="M89.5769 132.811C84.3011 125.483 80.1733 111.317 79.6848 104.234L54.5882 93.4255L44.1465 132.811H89.5769Z" fill="#77311D" stroke="black" stroke-width="1.4655"/>
<mask id="mask1" mask-type="alpha" maskUnits="userSpaceOnUse" x="44" y="93" width="209" height="199">
<path d="M252.662 291.012C228.448 257.38 209.502 175.543 207.26 143.033L92.0715 93.4255L44.1465 291.012H252.662Z" fill="#AC6651"/>
</mask>
<g mask="url(#mask1)">
<g style="mix-blend-mode:multiply">
<ellipse cx="78.5868" cy="92.6927" rx="21.6161" ry="19.7842" fill="black"/>
</g>
</g>
<mask id="path-6-inside-1" fill="white">
<path fill-rule="evenodd" clip-rule="evenodd" d="M45.2417 84.7094C49.1265 99.6956 64.3189 108.868 79.4382 105.246C94.5575 101.623 103.944 86.5618 100.615 71.4423L100.621 71.4409L94.3961 45.4584L94.3951 45.4587C90.6515 30.2744 75.3456 20.9378 60.1138 24.5872C44.8821 28.2366 35.4691 43.4956 39.013 58.7277L39.0128 58.7278L39.0189 58.7531C39.0314 58.8066 39.044 58.8601 39.0568 58.9136C39.0697 58.9671 39.0826 59.0205 39.0957 59.0739L45.0542 83.9433C45.0731 84.0251 45.0923 84.1068 45.1119 84.1886C45.1315 84.2704 45.1514 84.352 45.1716 84.4334L45.238 84.7103L45.2417 84.7094Z"/>
</mask>
<path fill-rule="evenodd" clip-rule="evenodd" d="M45.2417 84.7094C49.1265 99.6956 64.3189 108.868 79.4382 105.246C94.5575 101.623 103.944 86.5618 100.615 71.4423L100.621 71.4409L94.3961 45.4584L94.3951 45.4587C90.6515 30.2744 75.3456 20.9378 60.1138 24.5872C44.8821 28.2366 35.4691 43.4956 39.013 58.7277L39.0128 58.7278L39.0189 58.7531C39.0314 58.8066 39.044 58.8601 39.0568 58.9136C39.0697 58.9671 39.0826 59.0205 39.0957 59.0739L45.0542 83.9433C45.0731 84.0251 45.0923 84.1068 45.1119 84.1886C45.1315 84.2704 45.1514 84.352 45.1716 84.4334L45.238 84.7103L45.2417 84.7094Z" fill="#77311D"/>
<path d="M45.2417 84.7094L46.6603 84.3416L46.2994 82.9491L44.9004 83.2842L45.2417 84.7094ZM79.4382 105.246L79.0968 103.82L79.0968 103.82L79.4382 105.246ZM100.615 71.4423L100.274 70.0171L98.8748 70.352L99.1842 71.7574L100.615 71.4423ZM100.621 71.4409L100.962 72.8662L102.388 72.525L102.046 71.0995L100.621 71.4409ZM94.3961 45.4584L95.8213 45.117L95.4797 43.6911L94.0539 44.0334L94.3961 45.4584ZM94.3951 45.4587L92.9722 45.8095L93.3209 47.2238L94.7373 46.8837L94.3951 45.4587ZM60.1138 24.5872L60.4553 26.0124L60.4553 26.0124L60.1138 24.5872ZM39.013 58.7277L39.3637 60.1506L40.7681 59.8044L40.4403 58.3957L39.013 58.7277ZM39.0128 58.7278L38.662 57.3049L37.2484 57.6534L37.5876 59.0692L39.0128 58.7278ZM39.0189 58.7531L40.446 58.4197L40.444 58.4116L39.0189 58.7531ZM39.0568 58.9136L37.6317 59.255L37.6317 59.255L39.0568 58.9136ZM39.0957 59.0739L40.5209 58.7324L40.5189 58.7243L39.0957 59.0739ZM45.0542 83.9433L46.4823 83.6142L46.4794 83.6018L45.0542 83.9433ZM45.1716 84.4334L46.5969 84.0919L46.5938 84.0796L45.1716 84.4334ZM45.238 84.7103L43.8128 85.0517L44.1543 86.4768L45.5794 86.1355L45.238 84.7103ZM43.8231 85.0771C47.908 100.835 63.8821 110.48 79.7797 106.671L79.0968 103.82C64.7557 107.256 50.345 98.556 46.6603 84.3416L43.8231 85.0771ZM79.7797 106.671C95.6773 102.862 105.546 87.0254 102.047 71.1273L99.1842 71.7574C102.341 86.0982 93.4378 100.384 79.0968 103.82L79.7797 106.671ZM100.28 70.0157L100.274 70.0171L100.956 72.8676L100.962 72.8662L100.28 70.0157ZM92.971 45.7999L99.1962 71.7824L102.046 71.0995L95.8213 45.117L92.971 45.7999ZM94.7373 46.8837L94.7383 46.8834L94.0539 44.0334L94.0529 44.0337L94.7373 46.8837ZM95.818 45.1079C91.8816 29.1419 75.7881 19.3248 59.7724 23.1621L60.4553 26.0124C74.9031 22.5508 89.4213 31.4069 92.9722 45.8095L95.818 45.1079ZM59.7724 23.1621C43.7567 26.9993 33.8593 43.0435 37.5856 59.0598L40.4403 58.3957C37.0789 43.9476 46.0075 29.474 60.4553 26.0124L59.7724 23.1621ZM39.3636 60.1507L39.3637 60.1506L38.6622 57.3049L38.662 57.3049L39.3636 60.1507ZM40.444 58.4116L40.438 58.3864L37.5876 59.0692L37.5937 59.0945L40.444 58.4116ZM37.5918 59.0865C37.6049 59.1427 37.6182 59.1988 37.6317 59.255L40.482 58.5721C40.4698 58.5213 40.4578 58.4705 40.4459 58.4197L37.5918 59.0865ZM37.6317 59.255C37.6451 59.3112 37.6587 59.3674 37.6725 59.4234L40.5189 58.7243C40.5065 58.6737 40.4942 58.6229 40.482 58.5721L37.6317 59.255ZM46.4794 83.6018L40.5209 58.7324L37.6706 59.4153L43.6291 84.2848L46.4794 83.6018ZM43.6261 84.2724C43.6459 84.3583 43.6661 84.4442 43.6867 84.5301L46.537 83.8472C46.5184 83.7695 46.5002 83.6918 46.4823 83.6142L43.6261 84.2724ZM43.6867 84.5301C43.7073 84.6159 43.7282 84.7017 43.7495 84.7872L46.5938 84.0796C46.5746 84.0023 46.5556 83.9248 46.537 83.8472L43.6867 84.5301ZM46.6631 84.3688L46.5968 84.0919L43.7465 84.7749L43.8128 85.0517L46.6631 84.3688ZM44.9004 83.2842L44.8966 83.2851L45.5794 86.1355L45.5831 86.1346L44.9004 83.2842Z" fill="black" mask="url(#path-6-inside-1)"/>
</g>
<path d="M75.8389 80.4911C77.3654 79.6362 83.5327 78.5493 83.5327 81.0406C83.5327 84.1548 79.3194 83.9716 79.3194 83.9716C79.3194 83.9716 84.0987 82.8135 83.1664 86.1699C82.2504 89.4673 79.6858 88.1849 78.953 87.8186" stroke="black" stroke-width="1.4655"/>
<path d="M80.4834 48.4402C82.5595 47.4632 87.4445 46.5717 90.3755 50.8217" stroke="#FC909F" stroke-width="1.4655" stroke-linecap="round"/>
<path d="M52.85 57.7119C53.6087 55.5465 56.3973 51.4378 61.4828 52.3268" stroke="#FC909F" stroke-width="1.4655" stroke-linecap="round"/>
<path d="M53.7643 55.4905L51.5117 53.5023" stroke="#FC909F" stroke-width="1.4655" stroke-linecap="round"/>
<path d="M89.2611 48.7857L91.5137 46.7975" stroke="#FC909F" stroke-width="1.4655" stroke-linecap="round"/>
<path d="M56.1271 53.423L54.6445 50.8098" stroke="#FC909F" stroke-width="1.4655" stroke-linecap="round"/>
<path d="M86.5311 47.4507L88.0137 44.8375" stroke="#FC909F" stroke-width="1.4655" stroke-linecap="round"/>
<path d="M59.0867 52.0989L58.2803 49.2047" stroke="#FC909F" stroke-width="1.4655" stroke-linecap="round"/>
<path d="M83.2063 47.2259L84.0127 44.3316" stroke="#FC909F" stroke-width="1.4655" stroke-linecap="round"/>
<path d="M65.7608 59.7725C66.4415 62.1032 63.9151 60.3137 61.5844 60.9943C59.2536 61.675 58.001 64.5682 57.3204 62.2374C56.6397 59.9067 57.9773 57.4654 60.3081 56.7847C62.6389 56.1041 65.0801 57.4417 65.7608 59.7725Z" fill="#6BD9E9"/>
<path d="M89.1331 56.4044C89.732 58.7575 87.4135 56.9614 85.0604 57.5603C82.7073 58.1592 81.2107 60.9264 80.6118 58.5733C80.0129 56.2202 81.4349 53.8271 83.788 53.2282C86.1411 52.6293 88.5342 54.0513 89.1331 56.4044Z" fill="#6BD9E9"/>
<path fill-rule="evenodd" clip-rule="evenodd" d="M57.9981 63.3305C58.0399 63.6283 58.4185 63.6948 58.629 63.48C59.5322 62.5585 60.9205 61.8814 62.532 61.6899C63.4829 61.5769 64.3978 61.6465 65.2128 61.863C65.489 61.9364 65.7606 61.7032 65.6642 61.4342C65.054 59.7322 63.3319 58.6134 61.46 58.8359C59.2833 59.0945 57.7285 61.0687 57.9871 63.2454C57.9905 63.2739 57.9942 63.3023 57.9981 63.3305Z" fill="black"/>
<path fill-rule="evenodd" clip-rule="evenodd" d="M81.4822 59.6669C81.5235 59.9648 81.902 60.0313 82.1128 59.8169C83.0077 58.9064 84.381 58.2377 85.9747 58.0484C86.9145 57.9367 87.8188 58.005 88.6248 58.2183C88.9011 58.2915 89.1726 58.0582 89.0758 57.7893C88.4696 56.1063 86.7652 55.0007 84.9128 55.2208C82.7564 55.477 81.2159 57.4329 81.4722 59.5893C81.4753 59.6153 81.4786 59.6411 81.4822 59.6669Z" fill="black"/>
<path d="M75.0392 63.4838C75.1148 64.8913 75.6647 67.9096 77.2596 68.7225C79.2533 69.7387 77.6934 73.1011 73.9624 72.8827" stroke="black" stroke-width="1.4655"/>
<path d="M16.8732 125.946C16.8172 125.803 16.7403 125.601 16.6469 125.346C16.4391 124.777 16.15 123.941 15.8283 122.876C15.1846 120.747 14.4112 117.711 13.8956 114.092C12.8635 106.846 12.871 97.3096 16.9719 88.0358C17.6347 86.5368 18.463 84.9968 19.3608 83.3278C22.8296 76.8788 27.3348 68.503 27.3348 53.1205C27.3348 41.9128 32.7747 32.474 40.7834 25.8202C48.7994 19.1603 59.3576 15.3205 69.4978 15.3205C75.0415 15.3205 79.4984 15.9556 83.0807 18.1197C86.6408 20.2703 89.444 23.9988 91.526 30.4229C91.738 31.0768 92.438 31.4763 93.1223 31.2544C97.2681 29.9094 103.554 31.267 108.86 34.7309C114.142 38.1794 118.245 43.5807 118.245 50.0906C118.245 55.7423 117.277 59.5612 116.333 63.2803L116.333 63.2804C115.19 67.7829 114.087 72.1317 114.865 79.2168C115.125 81.5797 115.653 83.2553 116.391 84.6446C117.118 86.0116 118.033 87.0699 118.998 88.1853L119.02 88.2107C121.318 90.8678 122.364 93.0535 122.702 94.9763C123.039 96.8943 122.686 98.6339 122.031 100.439C121.701 101.346 121.3 102.256 120.876 103.215L120.839 103.298C120.428 104.226 119.998 105.197 119.611 106.22C118.812 108.334 118.187 110.692 118.25 113.487C118.302 115.859 118.723 117.485 119.352 118.715C119.974 119.932 120.776 120.71 121.477 121.388L121.496 121.406C122.134 122.025 122.665 122.546 123.058 123.276C123.41 123.929 123.67 124.79 123.714 126.083C114.918 131.315 106.212 133.477 99.674 134.327C96.3634 134.758 93.6125 134.852 91.6932 134.838C90.7337 134.832 89.9825 134.798 89.4737 134.766C89.2947 134.755 89.1457 134.744 89.0282 134.735C86.7748 131.295 84.7216 125.62 83.1308 119.791C81.5841 114.124 80.4981 108.4 80.0898 104.62C93.6724 100.693 102.186 86.6743 100.139 72.2106C100.137 72.184 100.134 72.1657 100.134 72.1653C100.131 72.1434 100.127 72.1185 100.122 72.0926C100.119 72.0687 100.114 72.0412 100.108 72.0103C100.102 71.9731 100.094 71.9311 100.086 71.8845C100.055 71.7132 100.009 71.4716 99.9496 71.1689C99.8305 70.5632 99.6559 69.7079 99.4324 68.6724C98.9855 66.6017 98.3425 63.8059 97.5579 60.8402C96.7738 57.8765 95.8456 54.7328 94.8272 51.9703C93.8162 49.228 92.6908 46.7886 91.4901 45.288L91.3815 45.1523L91.222 45.0831C90.514 44.776 89.7791 44.4338 89.0119 44.0766C85.3733 42.3824 81.01 40.3509 75.3593 40.1274C68.4806 39.8553 59.7696 42.2435 47.9943 50.7836L47.2533 51.3211L47.9661 51.8955C53.801 56.5976 55.0625 62.8344 54.7929 68.1288C54.5871 72.1694 53.4924 75.6067 52.8747 77.3249C52.4492 76.7033 52.1783 75.9218 51.9745 75.0041C51.8336 74.3697 51.7309 73.7012 51.6233 73.0011L51.6063 72.8904C51.4939 72.1597 51.3741 71.3975 51.1995 70.6615C50.8508 69.192 50.2613 67.7232 48.9528 66.6831C47.6414 65.6407 45.7301 65.1242 42.9468 65.2796L42.1308 65.3251L42.3011 66.1245L46.4626 85.657L46.4696 85.6898L46.4797 85.7218C47.9664 90.4341 50.5158 94.5187 53.7753 97.7433C53.8031 97.7898 53.8436 97.858 53.8952 97.9462C54.0011 98.1275 54.1538 98.3929 54.3386 98.7262C54.7086 99.3934 55.2062 100.331 55.7165 101.409C56.7475 103.589 57.7902 106.265 57.9911 108.449C58.195 110.667 57.6375 113.528 56.9993 115.891C56.6833 117.061 56.3539 118.087 56.1034 118.82C56.0512 118.973 56.0026 119.113 55.9582 119.238C54.1144 118.357 52.4677 118.423 51.0564 119.244C49.531 120.132 48.4139 121.831 47.5821 123.72C46.0623 127.171 45.3313 131.648 44.9941 134.426C35.8822 132.336 28.8465 130.214 24.0594 128.602C21.5997 127.774 19.7337 127.08 18.4848 126.594C17.8603 126.351 17.3902 126.161 17.0773 126.031C16.9995 125.999 16.9315 125.97 16.8732 125.946Z" fill="#FC909F" stroke="black" stroke-width="1.40022"/>
<path d="M45.8054 66.0114C44.9518 65.7303 44.0302 65.5807 43.0869 65.5807C39.2424 65.5807 36.1259 67.9622 36.4922 72.3586C36.8738 76.9383 39.6088 78.587 43.4533 78.587C43.8811 78.587 44.2999 78.5494 44.7063 78.4775C45.1498 78.399 45.5787 78.2796 45.9886 78.1234" stroke="black" stroke-width="2.93099"/>
<path d="M46.1718 78.0507C45.3366 78.396 44.4179 78.587 43.4533 78.587C39.6088 78.587 36.8738 76.9383 36.4922 72.3586C36.1259 67.9622 39.2424 65.5807 43.0869 65.5807C44.2364 65.5807 45.3536 65.8029 46.355 66.2144L46.1718 78.0507Z" fill="#77311D"/>
<path d="M44.7048 68.6952C43.2393 68.0235 40.0152 67.6693 38.8428 71.6262" stroke="black" stroke-width="1.4655"/>
<path d="M40.8574 68.8781C41.6512 69.5498 43.1656 71.6259 42.8725 74.5569" stroke="black" stroke-width="1.4655"/>
<path d="M44.5225 76.5721C49.3787 76.5721 53.3155 80.5089 53.3155 85.3651C53.3155 90.2213 49.3787 94.1581 44.5225 94.1581C39.6662 94.1581 35.7295 90.2213 35.7295 85.3651C35.7295 83.0235 37.0118 81.1518 38.1371 79.3199L38.4773 78.7704" stroke="#F4D150" stroke-width="1.4655"/>
<path d="M118.471 140.272H18.4845C18.4971 140.246 18.5098 140.22 18.5226 140.194C20.1877 136.803 23.2596 130.547 27.2577 124.949C29.5269 121.772 32.0674 118.848 34.7827 116.79C37.4984 114.733 40.3222 113.591 43.191 113.842C48.7066 114.325 53.6193 117.345 58.5513 120.376C59.0186 120.664 59.4861 120.951 59.9543 121.236C65.2612 124.471 70.7108 127.473 76.7044 126.159C78.7321 125.715 80.0986 124.764 80.9586 123.534C81.8064 122.323 82.1111 120.915 82.1638 119.628C82.2166 118.339 82.0191 117.121 81.814 116.235C81.718 115.821 81.6191 115.474 81.5401 115.219C82.8683 113.882 84.2744 113.104 85.7262 112.753C87.2996 112.373 88.9821 112.483 90.752 113.007C94.3167 114.061 98.1308 116.763 101.853 120.237C108.673 126.602 114.93 135.311 118.471 140.272Z" fill="white" stroke="black" stroke-width="1.566"/>
</g>
<defs>
<clipPath id="clip0">
<rect width="73.6842" height="117.24" fill="white" transform="translate(33.1562 15.7542)"/>
</clipPath>
</defs>
</svg>
