<svg width="133" height="133" viewBox="0 0 133 133" fill="none" xmlns="http://www.w3.org/2000/svg">
<circle cx="66.5" cy="66.5" r="66.5" fill="#F4D150"/>
<mask id="mask0" mask-type="alpha" maskUnits="userSpaceOnUse" x="0" y="0" width="133" height="133">
<circle cx="66.5" cy="66.5" r="66.5" fill="#FFEDEF"/>
</mask>
<g mask="url(#mask0)">
<g clip-path="url(#clip0)">
<path d="M85.4 126.875C80.36 119.875 76.4167 106.342 75.95 99.5754L51.975 89.2502L42 126.875H85.4Z" fill="#F9C9B6" stroke="black" stroke-width="1.4"/>
<mask id="mask1" mask-type="alpha" maskUnits="userSpaceOnUse" x="42" y="89" width="209" height="198">
<path d="M250.516 286.836C226.301 253.205 207.355 171.368 205.113 138.857L89.925 89.2502L42 286.836H250.516Z" fill="#F9C9B6"/>
</mask>
<g mask="url(#mask1)">
<g style="mix-blend-mode:multiply">
<ellipse cx="74.9" cy="88.5501" rx="20.65" ry="18.9" fill="black"/>
</g>
</g>
<mask id="path-6-inside-1" fill="white">
<path fill-rule="evenodd" clip-rule="evenodd" d="M95.8683 67.9075C95.856 67.8549 95.8436 67.8023 95.831 67.7497C95.8184 67.6971 95.8056 67.6446 95.7927 67.5922L90.0802 43.7494C90.0689 43.701 90.0574 43.6526 90.0458 43.6042C90.0342 43.5558 90.0225 43.5075 90.0107 43.4592L90.0029 43.4268L90.0027 43.4268C86.4264 28.9212 71.8046 20.002 57.2536 23.4883C42.7027 26.9746 33.7104 41.5515 37.0958 56.1029L37.0948 56.1031L43.0418 80.9244L43.0468 80.9232C46.7578 95.2398 61.2713 104.003 75.7151 100.542C90.1588 97.0813 99.1255 82.6929 95.9457 68.249L95.9499 68.2481L95.8683 67.9075Z"/>
</mask>
<path fill-rule="evenodd" clip-rule="evenodd" d="M95.8683 67.9075C95.856 67.8549 95.8436 67.8023 95.831 67.7497C95.8184 67.6971 95.8056 67.6446 95.7927 67.5922L90.0802 43.7494C90.0689 43.701 90.0574 43.6526 90.0458 43.6042C90.0342 43.5558 90.0225 43.5075 90.0107 43.4592L90.0029 43.4268L90.0027 43.4268C86.4264 28.9212 71.8046 20.002 57.2536 23.4883C42.7027 26.9746 33.7104 41.5515 37.0958 56.1029L37.0948 56.1031L43.0418 80.9244L43.0468 80.9232C46.7578 95.2398 61.2713 104.003 75.7151 100.542C90.1588 97.0813 99.1255 82.6929 95.9457 68.249L95.9499 68.2481L95.8683 67.9075Z" fill="#F9C9B6"/>
<path d="M95.8683 67.9075L94.5049 68.2257L94.5068 68.2337L95.8683 67.9075ZM95.7927 67.5922L94.4312 67.9184L94.4332 67.9263L95.7927 67.5922ZM90.0802 43.7494L88.717 44.0683L88.7187 44.0756L90.0802 43.7494ZM90.0458 43.6042L91.4073 43.278V43.278L90.0458 43.6042ZM90.0107 43.4592L88.6492 43.7854L88.651 43.7927L90.0107 43.4592ZM90.0029 43.4268L91.3644 43.1006L91.0395 41.7447L89.6823 42.064L90.0029 43.4268ZM90.0027 43.4268L88.6434 43.762L88.975 45.1069L90.3234 44.7896L90.0027 43.4268ZM57.2536 23.4883L57.5798 24.8498L57.2536 23.4883ZM37.0958 56.1029L37.4207 57.4647L38.7748 57.1416L38.4594 55.7856L37.0958 56.1029ZM37.0948 56.1031L36.7699 54.7413L35.4068 55.0665L35.7333 56.4293L37.0948 56.1031ZM43.0418 80.9244L41.6803 81.2506L42.0064 82.6116L43.3675 82.2859L43.0418 80.9244ZM43.0468 80.9232L44.402 80.5719L44.0573 79.2419L42.7211 79.5616L43.0468 80.9232ZM75.7151 100.542L75.3889 99.1805L75.7151 100.542ZM95.9457 68.249L95.6195 66.8876L94.283 67.2078L94.5785 68.55L95.9457 68.249ZM95.9499 68.2481L96.2761 69.6095L97.6375 69.2833L97.3113 67.9219L95.9499 68.2481ZM97.2316 67.5892C97.2187 67.534 97.2057 67.4788 97.1924 67.4235L94.4695 68.0759C94.4815 68.1258 94.4933 68.1758 94.5049 68.2257L97.2316 67.5892ZM97.1924 67.4235C97.1792 67.3682 97.1658 67.3131 97.1523 67.2581L94.4332 67.9263C94.4454 67.9761 94.4575 68.026 94.4695 68.0759L97.1924 67.4235ZM88.7187 44.0756L94.4313 67.9184L97.1542 67.266L91.4417 43.4232L88.7187 44.0756ZM91.4434 43.4305C91.4315 43.3797 91.4195 43.3289 91.4073 43.278L88.6844 43.9304C88.6954 43.9763 88.7063 44.0223 88.717 44.0683L91.4434 43.4305ZM91.4073 43.278C91.3951 43.2272 91.3828 43.1764 91.3704 43.1257L88.651 43.7927C88.6622 43.8385 88.6734 43.8844 88.6844 43.9304L91.4073 43.278ZM88.6414 43.753L88.6492 43.7854L91.3722 43.133L91.3644 43.1006L88.6414 43.753ZM90.3234 44.7896L90.3236 44.7896L89.6823 42.064L89.6821 42.0641L90.3234 44.7896ZM91.362 43.0917C87.6015 27.8394 72.2273 18.4611 56.9274 22.1268L57.5798 24.8498C71.3819 21.5429 85.2512 30.0031 88.6434 43.762L91.362 43.0917ZM56.9274 22.1268C41.6275 25.7926 32.1725 41.1197 35.7322 56.4201L38.4594 55.7856C35.2482 41.9834 43.7778 28.1566 57.5798 24.8498L56.9274 22.1268ZM37.4197 57.4649L37.4207 57.4647L36.7709 54.7411L36.7699 54.7413L37.4197 57.4649ZM44.4032 80.5982L38.4563 55.7769L35.7333 56.4293L41.6803 81.2506L44.4032 80.5982ZM42.7211 79.5616L42.716 79.5628L43.3675 82.2859L43.3725 82.2847L42.7211 79.5616ZM41.6916 81.2744C45.5937 96.3284 60.854 105.542 76.0413 101.903L75.3889 99.1805C61.6886 102.463 47.9219 94.1512 44.402 80.5719L41.6916 81.2744ZM76.0413 101.903C91.2285 98.2647 100.657 83.1358 97.313 67.948L94.5785 68.55C97.5945 82.25 89.0891 95.898 75.3889 99.1805L76.0413 101.903ZM95.6236 66.8866L95.6195 66.8876L96.272 69.6105L96.2761 69.6095L95.6236 66.8866ZM94.5068 68.2337L94.5884 68.5742L97.3113 67.9219L97.2297 67.5813L94.5068 68.2337Z" fill="black" mask="url(#path-6-inside-1)"/>
</g>
<rect x="60.6367" y="77.166" width="24.5" height="8.4" rx="1.4" transform="rotate(-4 60.6367 77.166)" fill="black"/>
<path fill-rule="evenodd" clip-rule="evenodd" d="M82.8872 75.6089L62.8262 77.0117L63.4702 79.4633C63.7266 80.4394 64.641 81.095 65.6477 81.0246L80.6515 79.9755C81.6583 79.9051 82.4726 79.1285 82.5906 78.1263L82.8872 75.6089ZM83.4733 83.9884L63.4123 85.3912L63.7088 82.8738C63.8269 81.8716 64.6412 81.095 65.6479 81.0246L80.6517 79.9755C81.6584 79.9051 82.5729 80.5607 82.8293 81.5368L83.4733 83.9884Z" fill="white"/>
<path d="M62.3234 76.5972C61.0437 76.5051 59.9629 77.5649 60.0531 78.8549L60.4097 83.9543C60.4999 85.2444 61.7176 86.1434 62.9721 85.8741C65.4025 85.3524 70.0496 84.4271 73.408 84.1923C76.7663 83.9574 81.497 84.2269 83.9763 84.4054C85.256 84.4974 86.3368 83.4377 86.2466 82.1476L85.89 77.0482C85.7998 75.7582 84.5821 74.8591 83.3276 75.1284C80.8972 75.6502 76.2501 76.5754 72.8918 76.8103C69.5334 77.0451 64.8027 76.7756 62.3234 76.5972Z" stroke="black" stroke-width="1.4"/>
<path d="M76.6494 46.2752C78.6327 45.3419 83.2994 44.4902 86.0994 48.5502" stroke="black" stroke-width="1.4" stroke-linecap="round"/>
<path d="M50.2519 55.1326C50.9766 53.0639 53.6406 49.1389 58.4989 49.9881" stroke="black" stroke-width="1.4" stroke-linecap="round"/>
<ellipse cx="58.8994" cy="58.7003" rx="3.15" ry="3.5" transform="rotate(-6.77646 58.8994 58.7003)" fill="black"/>
<ellipse cx="81.3106" cy="55.1991" rx="3.15" ry="3.5" transform="rotate(-6.27568 81.3106 55.1991)" fill="black"/>
<path d="M71.1259 59.2564C71.8079 64.1087 74.7698 67.5803 74.7698 67.5803C74.7698 67.5803 73.849 69.8303 70.2857 69.6242" stroke="black" stroke-width="1.4"/>
<path d="M63.9759 16.9711L64.0026 16.9739L64.0295 16.9747C73.3637 17.2492 80.6199 20.9639 85.7549 25.4973C90.6745 29.8404 93.6122 34.9031 94.5703 38.3536C93.1493 39.1647 90.7151 39.8626 87.6105 40.435C84.224 41.0593 80.158 41.5152 76.0091 41.8403C67.7119 42.4903 59.1427 42.6122 55.1403 42.5252L53.0148 42.479L54.697 43.7789C55.5712 44.4544 56.7348 44.9245 57.9655 45.2551C59.2051 45.5881 60.5621 45.7924 61.8615 45.9085C63.1999 46.0281 64.5048 46.0562 65.5858 46.0286C61.8804 48.8853 57.1641 51.0818 52.5137 52.7099C47.1426 54.5904 41.9193 55.6921 38.5735 56.1824L37.8213 56.2926L37.9932 57.0332C39.1648 62.0832 41.3184 70.911 42.763 76.8319C43.4038 79.4587 43.9051 81.5134 44.1191 82.4121C44.4986 84.006 45.6934 86.2779 47.0572 88.372C48.3147 90.3029 49.7818 92.1831 51.0199 93.3403L48.2766 104.475H37.9303C40.8485 100.025 41.4644 94.8841 40.8694 89.4311C40.2253 83.5286 38.1529 77.1795 35.9683 70.8225C35.7533 70.1967 35.5372 69.5708 35.3211 68.9451C33.3317 63.1844 31.3478 57.4397 30.2731 51.9338C29.0826 45.8354 29.0295 40.128 31.2645 35.1098C34.8831 26.985 41.2978 22.2669 47.7142 19.6669C54.1457 17.0607 60.5311 16.604 63.9759 16.9711Z" fill="white" stroke="black" stroke-width="1.4"/>
<path d="M45.6625 75.989L45.8494 75.7876V75.5129V63.7875V63.3957L45.5155 63.1908C44.2087 62.3889 42.6195 61.9501 40.9774 61.9501C39.0033 61.9501 37.1551 62.5618 35.8386 63.8034C34.5074 65.059 33.7891 66.8947 33.9798 69.1833C34.1657 71.4134 34.9143 73.0547 36.1561 74.1453C36.0541 74.495 36.024 74.872 36.0712 75.2688C36.2075 76.4127 36.7858 77.237 37.6794 77.7448C38.5313 78.229 39.6216 78.4001 40.7829 78.4001C42.7006 78.4001 44.3821 77.3686 45.6625 75.989Z" stroke="black" stroke-width="1.4"/>
<path fill-rule="evenodd" clip-rule="evenodd" d="M47.9419 69.273C47.9654 69.0519 47.9774 68.8274 47.9774 68.6001C47.9774 65.0241 44.6501 62.6501 40.9774 62.6501C37.3047 62.6501 34.3274 64.9251 34.6774 69.1251C34.8722 71.4627 35.7088 73.001 37.006 73.9267C36.8003 74.2849 36.7103 74.7057 36.7675 75.186C36.9877 77.0346 38.5657 77.7001 40.784 77.7001C44.6788 77.7001 47.7588 72.7636 47.9419 69.273Z" fill="#F9C9B6"/>
<path d="M42.5248 65.6252C41.1248 64.9835 38.0448 64.6452 36.9248 68.4252" stroke="black" stroke-width="1.4"/>
<path d="M38.8496 65.8C39.6079 66.4417 41.0546 68.425 40.7746 71.225" stroke="black" stroke-width="1.4"/>
<path d="M80.3432 115.657L80.3923 115.669L80.4424 115.673C96.5862 117.004 106.267 124.175 113.293 134.05H17.631C23.3359 123.781 31.4502 117.244 44.6055 114.244C50.2102 112.967 56.7394 112.329 64.3999 112.329C67.7094 112.329 70.2847 112.834 72.7286 113.5C73.6339 113.747 74.5439 114.024 75.4748 114.306C77.0156 114.775 78.6138 115.26 80.3432 115.657Z" fill="#77311D" stroke="black" stroke-width="1.4"/>
<path d="M40.5759 115.004L43.7795 108.145C43.856 107.981 44.0461 107.903 44.2166 107.963C57.4909 112.662 69.5668 112.331 80.7579 109.216C80.8987 109.177 81.0492 109.229 81.1355 109.347L86.0118 116.015C86.1458 116.198 86.0775 116.457 85.8662 116.54C74.1037 121.158 52.0322 120.373 40.7455 115.467C40.5665 115.389 40.4933 115.18 40.5759 115.004Z" fill="white" stroke="black" stroke-width="1.4"/>
</g>
<defs>
<clipPath id="clip0">
<rect width="70" height="112" fill="white" transform="translate(31.5 15.05)"/>
</clipPath>
</defs>
</svg>
