<svg width="133" height="133" viewBox="0 0 133 133" fill="none" xmlns="http://www.w3.org/2000/svg">
<circle cx="66.0567" cy="66.0567" r="66.0567" fill="#FFEDEF"/>
<mask id="mask0" mask-type="alpha" maskUnits="userSpaceOnUse" x="0" y="0" width="133" height="133">
<circle cx="66.5" cy="66.5" r="66.5" fill="#FFEDEF"/>
</mask>
<g mask="url(#mask0)">
<g clip-path="url(#clip0)">
<path d="M85.0413 126.13C80.0349 119.176 76.1179 105.733 75.6543 99.0117L51.8392 88.7554L41.9307 126.13H85.0413Z" fill="#AC6651" stroke="black" stroke-width="1.39067"/>
<mask id="mask1" mask-type="alpha" maskUnits="userSpaceOnUse" x="41" y="88" width="210" height="199">
<path d="M250.446 286.342C226.232 252.71 207.286 170.873 205.044 138.363L89.8557 88.7554L41.9307 286.342H250.446Z" fill="#AC6651"/>
</mask>
<g mask="url(#mask1)">
<g style="mix-blend-mode:multiply">
<ellipse cx="74.611" cy="88.0599" rx="20.5123" ry="18.774" fill="black"/>
</g>
</g>
<mask id="path-7-inside-1" fill="white">
<path fill-rule="evenodd" clip-rule="evenodd" d="M95.4684 67.675C95.4473 67.5827 95.4257 67.4904 95.4036 67.3981C95.3815 67.3059 95.3589 67.2138 95.3359 67.1219L89.6832 43.5287C89.6742 43.4903 89.6651 43.4519 89.6559 43.4136C89.6467 43.3752 89.6374 43.3368 89.628 43.2985L89.6134 43.2373L89.613 43.2374C86.0605 28.8285 71.5362 19.9687 57.0823 23.4318C42.6283 26.8948 33.6959 41.3746 37.0588 55.8289L37.058 55.8291L42.9653 80.4849L42.9713 80.4835C46.6574 94.7048 61.0743 103.409 75.4218 99.9718C89.7694 96.5342 98.6763 82.2416 95.5176 67.8939L95.5207 67.8931L95.4684 67.675Z"/>
</mask>
<path fill-rule="evenodd" clip-rule="evenodd" d="M95.4684 67.675C95.4473 67.5827 95.4257 67.4904 95.4036 67.3981C95.3815 67.3059 95.3589 67.2138 95.3359 67.1219L89.6832 43.5287C89.6742 43.4903 89.6651 43.4519 89.6559 43.4136C89.6467 43.3752 89.6374 43.3368 89.628 43.2985L89.6134 43.2373L89.613 43.2374C86.0605 28.8285 71.5362 19.9687 57.0823 23.4318C42.6283 26.8948 33.6959 41.3746 37.0588 55.8289L37.058 55.8291L42.9653 80.4849L42.9713 80.4835C46.6574 94.7048 61.0743 103.409 75.4218 99.9718C89.7694 96.5342 98.6763 82.2416 95.5176 67.8939L95.5207 67.8931L95.4684 67.675Z" fill="#AC6651"/>
<path d="M95.4684 67.675L94.1128 67.9851L94.1144 67.9921L94.116 67.999L95.4684 67.675ZM95.4036 67.3981L96.756 67.0742L96.756 67.0741L95.4036 67.3981ZM95.3359 67.1219L93.9835 67.446L93.9852 67.4529L93.9869 67.4599L95.3359 67.1219ZM89.6832 43.5287L88.3294 43.8469L88.3308 43.8527L89.6832 43.5287ZM89.6559 43.4136L91.0083 43.0896L91.0083 43.0896L89.6559 43.4136ZM89.628 43.2985L88.2756 43.6226L88.2771 43.6284L89.628 43.2985ZM89.6134 43.2373L90.9658 42.9133L90.6412 41.5586L89.2871 41.8855L89.6134 43.2373ZM89.613 43.2374L88.2628 43.5703L88.5941 44.914L89.9394 44.5892L89.613 43.2374ZM57.0823 23.4318L56.7582 22.0794L57.0823 23.4318ZM37.0588 55.8289L37.3846 57.1809L38.726 56.8577L38.4133 55.5138L37.0588 55.8289ZM37.058 55.8291L36.7322 54.4772L35.382 54.8025L35.7056 56.1532L37.058 55.8291ZM42.9653 80.4849L41.6129 80.8089L41.9369 82.1613L43.2893 81.8373L42.9653 80.4849ZM42.9713 80.4835L44.3175 80.1346L43.9749 78.813L42.6473 79.1311L42.9713 80.4835ZM75.4218 99.9718L75.7458 101.324L75.4218 99.9718ZM95.5176 67.8939L95.1934 66.5415L93.8659 66.8596L94.1594 68.1929L95.5176 67.8939ZM95.5207 67.8931L95.8448 69.2455L97.1971 68.9214L96.8731 67.5691L95.5207 67.8931ZM96.8241 67.365C96.8019 67.268 96.7792 67.1711 96.756 67.0742L94.0512 67.7221C94.0722 67.8098 94.0927 67.8975 94.1128 67.9851L96.8241 67.365ZM96.756 67.0741C96.7328 66.9772 96.7091 66.8805 96.6849 66.784L93.9869 67.4599C94.0088 67.5471 94.0302 67.6345 94.0512 67.7222L96.756 67.0741ZM88.3308 43.8527L93.9835 67.446L96.6883 66.7979L91.0356 43.2047L88.3308 43.8527ZM91.037 43.2104C91.0275 43.1701 91.0179 43.1298 91.0083 43.0896L88.3035 43.7375C88.3122 43.774 88.3209 43.8105 88.3294 43.8469L91.037 43.2104ZM91.0083 43.0896C90.9986 43.0492 90.9888 43.0089 90.979 42.9687L88.2771 43.6284C88.2859 43.6648 88.2947 43.7012 88.3035 43.7375L91.0083 43.0896ZM88.261 43.5613L88.2757 43.6226L90.9804 42.9745L90.9658 42.9133L88.261 43.5613ZM89.9394 44.5892L89.9397 44.5892L89.2871 41.8855L89.2867 41.8856L89.9394 44.5892ZM90.9633 42.9045C87.2279 27.7538 71.9561 18.4381 56.7582 22.0794L57.4063 24.7842C71.1163 21.4994 84.8932 29.9031 88.2628 43.5703L90.9633 42.9045ZM56.7582 22.0794C41.5603 25.7207 32.1683 40.9456 35.7043 56.1441L38.4133 55.5138C35.2235 41.8036 43.6962 28.069 57.4063 24.7842L56.7582 22.0794ZM37.3838 57.1811L37.3846 57.1809L36.733 54.477L36.7322 54.4772L37.3838 57.1811ZM44.3177 80.1609L38.4104 55.5051L35.7056 56.1532L41.6129 80.8089L44.3177 80.1609ZM42.6473 79.1311L42.6413 79.1325L43.2893 81.8373L43.2953 81.8359L42.6473 79.1311ZM41.6251 80.8324C45.5011 95.7862 60.6598 104.939 75.7458 101.324L75.0978 98.6194C61.4888 101.88 47.8138 93.6235 44.3175 80.1346L41.6251 80.8324ZM75.7458 101.324C90.8319 97.7097 100.197 82.6815 96.8757 67.5949L94.1594 68.1929C97.1555 81.8016 88.7068 95.3588 75.0978 98.6194L75.7458 101.324ZM95.1966 66.5407L95.1934 66.5415L95.8417 69.2462L95.8448 69.2455L95.1966 66.5407ZM94.116 67.999L94.1683 68.2171L96.8731 67.5691L96.8208 67.351L94.116 67.999Z" fill="black" mask="url(#path-7-inside-1)"/>
</g>
<path opacity="0.35" d="M86.0072 37.681C83.2259 35.4559 78.4165 35.2473 76.4464 35.4212L73.665 26.208C78.3933 27.3205 84.7904 34.552 86.0072 37.681Z" fill="#717376"/>
<path d="M50.4777 14.9396C50.4777 14.9396 52.4725 13.5622 60.8918 11.4411C69.311 9.31999 72.3807 10.1486 72.3807 10.1486L76.4791 35.4698C76.4791 35.4698 73.6842 35.4095 66.7332 36.9277C59.7822 38.4459 56.4553 40.2884 56.4553 40.2884L50.4777 14.9396Z" fill="#171921"/>
<path d="M37.6815 40.9837C35.3173 26.5208 45.7937 17.2844 50.5452 14.7349L56.4555 40.2884C49.7803 26.5208 40.6946 35.0154 37.6815 40.9837Z" fill="#171921"/>
<path opacity="0.35" d="M44.1129 56.2812C41.6097 46.8246 51.7616 41.737 56.4551 40.2883C54.0214 34.6098 48.4587 29.5107 41.6792 35.7689C35.4212 46.3726 37.8549 54.543 39.7671 60.8008L44.1129 56.2812Z" fill="#717376"/>
<path d="M85.2233 75.6843C85.1641 74.9655 84.4292 74.5653 83.8063 74.8107C82.3361 75.39 77.4725 77.2325 74.0431 77.7042C70.2805 78.2218 64.5823 77.5932 62.9329 77.3884C62.2622 77.3051 61.6643 77.8816 61.78 78.5821C62.0066 79.9528 62.4732 81.2742 63.1597 82.485C63.9253 83.8354 64.9495 85.0217 66.1736 85.9763C67.3977 86.9308 68.7979 87.6349 70.2941 88.0484C71.7903 88.4619 73.3534 88.5766 74.8939 88.386C76.4345 88.1954 77.9224 87.7032 79.2728 86.9375C80.6231 86.1719 81.8095 85.1478 82.764 83.9237C83.7186 82.6995 84.4227 81.2994 84.8362 79.8032C85.2067 78.4624 85.3373 77.0681 85.2233 75.6843Z" fill="black" stroke="black" stroke-width="1.39067"/>
<path d="M76.4189 46.2513C78.3891 45.3242 83.0246 44.4782 85.8059 48.5111" stroke="black" stroke-width="1.39067" stroke-linecap="round"/>
<path d="M50.1974 55.0497C50.9173 52.9948 53.5636 49.0959 58.3894 49.9395" stroke="black" stroke-width="1.39067" stroke-linecap="round"/>
<path fill-rule="evenodd" clip-rule="evenodd" d="M55.0968 60.4223C55.1366 60.7049 55.4958 60.7678 55.6955 60.564C56.5526 59.6892 57.8702 59.0465 59.3999 58.8647C60.3018 58.7575 61.1698 58.8235 61.943 59.0288C62.2051 59.0984 62.4628 58.8771 62.3712 58.6218C61.7922 57.0068 60.1581 55.9453 58.3818 56.1563C56.3163 56.4018 54.8408 58.2752 55.0862 60.3407C55.0895 60.368 55.093 60.3952 55.0968 60.4223Z" fill="black"/>
<path fill-rule="evenodd" clip-rule="evenodd" d="M77.3807 56.9451C77.4199 57.2278 77.7791 57.2909 77.9792 57.0873C78.8283 56.2232 80.1317 55.5885 81.6442 55.4088C82.5358 55.3029 83.3938 55.3676 84.1586 55.57C84.4207 55.6394 84.6784 55.418 84.5864 55.1628C84.0111 53.5659 82.3938 52.5168 80.6361 52.7256C78.5898 52.9688 77.128 54.8248 77.3712 56.8711C77.3741 56.8959 77.3773 56.9205 77.3807 56.9451Z" fill="#171921"/>
<path d="M70.0651 62.6001C71.88 61.9095 75.0449 62.1181 74.8501 65.6293C74.6769 68.7498 71.4753 69.3695 70.4553 68.6419" stroke="black" stroke-width="1.39067"/>
<path d="M43.5032 63.0471C42.6931 62.7804 41.8186 62.6384 40.9235 62.6384C37.2753 62.6384 34.3179 64.8983 34.6655 69.0703C35.0276 73.4161 37.623 74.9806 41.2712 74.9806C41.6771 74.9806 42.0745 74.9449 42.4602 74.8767C42.8811 74.8022 43.288 74.6889 43.677 74.5407" stroke="#171921" stroke-width="2.78133"/>
<path d="M43.8509 74.4717C43.0583 74.7993 42.1865 74.9806 41.2712 74.9806C37.623 74.9806 35.0276 73.4161 34.6655 69.0703C34.3179 64.8983 37.2753 62.6384 40.9235 62.6384C42.0143 62.6384 43.0744 62.8492 44.0247 63.2397L43.8509 74.4717Z" fill="#AC6651"/>
<path d="M42.4611 65.5937C41.0704 64.9563 38.011 64.6203 36.8984 68.3751" stroke="#171921" stroke-width="1.39067"/>
<path d="M38.8096 65.7676C39.5628 66.405 40.9999 68.3751 40.7217 71.1564" stroke="#171921" stroke-width="1.39067"/>
<path d="M65.9763 125.013L66.4036 124.464L65.9763 125.013L66.5749 125.479L66.9872 124.842L66.9873 124.842L66.9879 124.841L66.9912 124.836L67.0054 124.815C67.0183 124.795 67.0379 124.765 67.0641 124.726C67.1164 124.648 67.1946 124.532 67.297 124.384C67.5016 124.089 67.8022 123.665 68.183 123.159C68.9456 122.146 70.0249 120.808 71.2958 119.499C72.57 118.187 74.0167 116.926 75.5116 116.049C77.0123 115.168 78.4943 114.712 79.8697 114.898C94.6242 116.887 105.482 123.422 112.53 133.156H17.5128C23.1797 122.955 31.2398 116.462 44.3075 113.483C44.8644 113.356 45.6215 113.394 46.5682 113.614C47.5051 113.832 48.5734 114.215 49.7254 114.721C52.0293 115.734 54.6012 117.211 57.018 118.741C59.4312 120.268 61.672 121.837 63.3107 123.025C64.1296 123.619 64.7971 124.117 65.2595 124.466C65.4907 124.64 65.6705 124.778 65.7922 124.871C65.8531 124.918 65.8994 124.953 65.9304 124.977L65.9652 125.004L65.9738 125.011L65.9758 125.013L65.9763 125.013Z" fill="#9287FF" stroke="black" stroke-width="1.39067"/>
<path d="M40.1947 114.412L41.9909 107.726C42.0637 107.455 42.414 107.378 42.6031 107.585C47.7706 113.24 54.2915 113.018 56.4559 112.759C56.7497 112.724 56.9798 113.045 56.8418 113.307L52.2675 121.982C52.1974 122.115 52.0539 122.188 51.9067 122.158C50.5339 121.872 43.6938 120.2 40.235 114.684C40.1843 114.603 40.1699 114.504 40.1947 114.412Z" fill="#E0DDFF" stroke="black" stroke-width="1.39067"/>
<path d="M85.5945 114.376L81.5683 107.602C81.4316 107.373 81.0948 107.376 80.9491 107.601C78.9546 110.673 75.5145 112.088 74.3116 112.506C74.0952 112.581 73.9962 112.838 74.1129 113.035L78.8073 120.967C78.8773 121.086 79.0097 121.15 79.142 121.112C79.8841 120.901 82.4309 119.836 85.5899 114.737C85.6578 114.628 85.6603 114.487 85.5945 114.376Z" fill="#E0DDFF" stroke="black" stroke-width="1.39067"/>
<path d="M59.9718 120.467L56.8428 112.992L54.4092 118.207L59.9718 120.467Z" fill="black" stroke="black" stroke-width="1.39067" stroke-linejoin="round"/>
<path d="M70.9237 120.119L74.0527 112.644L76.4863 117.859L70.9237 120.119Z" fill="black" stroke="black" stroke-width="1.39067" stroke-linejoin="round"/>
<path d="M46.4142 106.386L42.2422 107.429L45.7189 109.689L46.4142 106.386Z" fill="black" stroke="black" stroke-width="1.39067" stroke-linejoin="round"/>
<path d="M77.5292 106.386L81.3535 107.429L78.9198 109.689L77.5292 106.386Z" fill="black" stroke="black" stroke-width="1.39067" stroke-linejoin="round"/>
</g>
<defs>
<clipPath id="clip0">
<rect width="70" height="112" fill="white" transform="translate(31.5 15.05)"/>
</clipPath>
</defs>
</svg>
