<svg width="491" height="242" viewBox="0 0 491 242" fill="none" xmlns="http://www.w3.org/2000/svg">
<g clip-path="url(#clip0)">
<path d="M408.902 6.42199L276.068 11.4937L275.963 8.75586L215.731 11.0556L215.836 13.7934L82.454 18.886C81.2741 18.931 80.1145 19.208 79.0416 19.7012C77.9687 20.1944 77.0035 20.8941 76.201 21.7603C75.3985 22.6265 74.7745 23.6423 74.3645 24.7496C73.9546 25.857 73.7668 27.0343 73.8119 28.2143L80.7565 210.105C80.8475 212.488 81.8814 214.737 83.6308 216.358C85.3802 217.979 87.7018 218.838 90.0848 218.747L416.532 206.283C417.712 206.238 418.872 205.961 419.945 205.468C421.018 204.975 421.983 204.275 422.786 203.409C423.588 202.543 424.212 201.527 424.622 200.419C425.032 199.312 425.22 198.135 425.175 196.955L418.23 15.0642C418.185 13.8842 417.908 12.7247 417.415 11.6518C416.922 10.5789 416.222 9.61361 415.356 8.81112C414.489 8.00862 413.474 7.38459 412.366 6.97466C411.259 6.56474 410.082 6.37694 408.902 6.42199Z" fill="#3F3D56"/>
<path d="M406.447 22.4182L86.1221 34.6484L93.0212 215.345L413.346 203.115L406.447 22.4182Z" fill="#4285F4"/>
<path d="M245.822 23.6157C247.637 23.5465 249.052 22.0194 248.982 20.2049C248.913 18.3905 247.386 16.9757 245.572 17.045C243.757 17.1143 242.342 18.6413 242.412 20.4558C242.481 22.2703 244.008 23.685 245.822 23.6157Z" fill="#4285F4"/>
<path d="M434.262 199.026L403 200.219L402.914 197.967C402.912 197.908 402.898 197.851 402.874 197.797C402.849 197.744 402.814 197.696 402.771 197.656C402.728 197.616 402.678 197.585 402.623 197.565C402.568 197.544 402.509 197.535 402.451 197.537L391.732 197.946C391.674 197.949 391.616 197.962 391.563 197.987C391.509 198.012 391.461 198.046 391.422 198.089C391.382 198.132 391.351 198.183 391.33 198.238C391.31 198.293 391.301 198.351 391.303 198.41L391.389 200.663L384.69 200.918L384.604 198.666C384.602 198.607 384.588 198.55 384.563 198.496C384.539 198.443 384.504 198.395 384.461 198.355C384.418 198.315 384.367 198.284 384.312 198.264C384.257 198.243 384.199 198.234 384.14 198.236L373.422 198.646C373.363 198.648 373.306 198.662 373.252 198.686C373.199 198.711 373.151 198.745 373.111 198.788C373.071 198.832 373.04 198.882 373.02 198.937C372.999 198.992 372.99 199.051 372.992 199.109L373.078 201.362L366.379 201.617L366.293 199.365C366.291 199.306 366.277 199.249 366.253 199.195C366.228 199.142 366.194 199.094 366.151 199.054C366.108 199.014 366.057 198.983 366.002 198.963C365.947 198.943 365.888 198.933 365.83 198.935L355.111 199.345C355.053 199.347 354.995 199.361 354.942 199.385C354.889 199.41 354.841 199.445 354.801 199.488C354.761 199.531 354.73 199.581 354.709 199.636C354.689 199.691 354.68 199.75 354.682 199.808L354.768 202.061L348.069 202.316L347.983 200.064C347.981 200.005 347.967 199.948 347.943 199.895C347.918 199.841 347.883 199.793 347.84 199.753C347.797 199.713 347.747 199.682 347.692 199.662C347.637 199.642 347.578 199.632 347.519 199.635L336.801 200.044C336.742 200.046 336.685 200.06 336.631 200.084C336.578 200.109 336.53 200.144 336.49 200.187C336.45 200.23 336.419 200.28 336.399 200.335C336.379 200.39 336.369 200.449 336.372 200.507L336.458 202.76L329.759 203.016L329.673 200.763C329.67 200.705 329.657 200.647 329.632 200.594C329.608 200.54 329.573 200.492 329.53 200.452C329.487 200.413 329.436 200.382 329.381 200.361C329.326 200.341 329.268 200.331 329.209 200.334L318.491 200.743C318.432 200.745 318.374 200.759 318.321 200.783C318.268 200.808 318.22 200.843 318.18 200.886C318.14 200.929 318.109 200.979 318.089 201.034C318.068 201.089 318.059 201.148 318.061 201.207L318.147 203.459L311.448 203.715L311.362 201.462C311.36 201.404 311.346 201.346 311.322 201.293C311.297 201.239 311.262 201.191 311.219 201.152C311.176 201.112 311.126 201.081 311.071 201.06C311.016 201.04 310.957 201.031 310.899 201.033L300.18 201.442C300.122 201.444 300.064 201.458 300.011 201.483C299.957 201.507 299.909 201.542 299.87 201.585C299.83 201.628 299.799 201.678 299.778 201.733C299.758 201.788 299.749 201.847 299.751 201.906L299.837 204.158L293.138 204.414L293.052 202.161C293.05 202.103 293.036 202.045 293.011 201.992C292.987 201.938 292.952 201.891 292.909 201.851C292.866 201.811 292.815 201.78 292.76 201.759C292.705 201.739 292.647 201.73 292.588 201.732L208.628 204.938C208.57 204.94 208.512 204.954 208.459 204.978C208.405 205.003 208.357 205.037 208.318 205.08C208.278 205.123 208.247 205.174 208.226 205.229C208.206 205.284 208.197 205.343 208.199 205.401L208.285 207.654L201.586 207.909L201.5 205.657C201.498 205.598 201.484 205.541 201.459 205.487C201.435 205.434 201.4 205.386 201.357 205.346C201.314 205.306 201.263 205.275 201.208 205.255C201.153 205.234 201.095 205.225 201.036 205.227L190.318 205.637C190.259 205.639 190.202 205.653 190.148 205.677C190.095 205.702 190.047 205.736 190.007 205.779C189.967 205.823 189.936 205.873 189.916 205.928C189.895 205.983 189.886 206.042 189.888 206.1L189.974 208.353L183.275 208.608L183.189 206.356C183.187 206.297 183.173 206.24 183.149 206.186C183.124 206.133 183.09 206.085 183.047 206.045C183.004 206.005 182.953 205.974 182.898 205.954C182.843 205.934 182.784 205.924 182.726 205.926L172.007 206.336C171.949 206.338 171.891 206.352 171.838 206.376C171.785 206.401 171.737 206.436 171.697 206.479C171.657 206.522 171.626 206.572 171.605 206.627C171.585 206.682 171.576 206.741 171.578 206.799L171.664 209.052L164.965 209.308L164.879 207.055C164.877 206.996 164.863 206.939 164.838 206.886C164.814 206.832 164.779 206.784 164.736 206.744C164.693 206.704 164.643 206.673 164.588 206.653C164.533 206.633 164.474 206.623 164.415 206.626L153.697 207.035C153.638 207.037 153.581 207.051 153.527 207.075C153.474 207.1 153.426 207.135 153.386 207.178C153.346 207.221 153.315 207.271 153.295 207.326C153.275 207.381 153.265 207.44 153.268 207.498L153.354 209.751L146.655 210.007L146.569 207.754C146.566 207.696 146.553 207.638 146.528 207.585C146.504 207.531 146.469 207.483 146.426 207.443C146.383 207.404 146.332 207.373 146.277 207.352C146.222 207.332 146.164 207.322 146.105 207.325L135.387 207.734C135.328 207.736 135.27 207.75 135.217 207.774C135.164 207.799 135.116 207.834 135.076 207.877C135.036 207.92 135.005 207.97 134.985 208.025C134.964 208.08 134.955 208.139 134.957 208.198L135.043 210.45L128.344 210.706L128.258 208.453C128.256 208.395 128.242 208.337 128.218 208.284C128.193 208.23 128.158 208.182 128.115 208.143C128.072 208.103 128.022 208.072 127.967 208.051C127.912 208.031 127.853 208.022 127.795 208.024L117.076 208.433C117.018 208.435 116.96 208.449 116.907 208.474C116.853 208.498 116.805 208.533 116.765 208.576C116.726 208.619 116.695 208.669 116.674 208.724C116.654 208.78 116.644 208.838 116.647 208.897L116.733 211.149L110.034 211.405L109.948 209.152C109.946 209.094 109.932 209.036 109.907 208.983C109.883 208.93 109.848 208.882 109.805 208.842C109.762 208.802 109.711 208.771 109.656 208.75C109.601 208.73 109.543 208.721 109.484 208.723L98.7659 209.132C98.7072 209.134 98.6496 209.148 98.5963 209.173C98.5429 209.197 98.495 209.232 98.4551 209.275C98.4152 209.318 98.3842 209.369 98.3638 209.424C98.3434 209.479 98.3341 209.537 98.3363 209.596L98.4223 211.848L77.8789 212.633C75.0363 212.741 72.3532 213.974 70.4198 216.061C68.4865 218.148 67.4614 220.917 67.5699 223.76L67.7549 228.607C67.8635 231.449 69.0968 234.132 71.1836 236.066C73.2704 237.999 76.0398 239.024 78.8825 238.916L435.265 225.309C438.108 225.2 440.791 223.967 442.725 221.88C444.658 219.793 445.683 217.024 445.574 214.181L445.389 209.335C445.281 206.492 444.048 203.809 441.961 201.876C439.874 199.942 437.105 198.917 434.262 199.026Z" fill="#3F3D56"/>
<path d="M403.296 125.983L287.38 130.409L285.053 69.4534L400.968 65.0276L403.296 125.983ZM288.487 129.305L402.107 124.967L399.861 66.1316L286.241 70.4696L288.487 129.305Z" fill="#3F3D56"/>
<path d="M231.77 141.682L110.127 146.326L107.237 70.6375L228.88 65.9931L231.77 141.682ZM111.427 144.923L230.367 140.382L227.58 67.3962L108.64 71.9374L111.427 144.923Z" fill="#3F3D56"/>
<path d="M165.848 115.097L165.674 113.591C165.206 110.466 166.121 106.997 168.894 103.399C171.392 100.219 172.758 97.897 172.658 95.2816C172.545 92.3178 170.61 90.4129 166.946 90.4946C164.852 90.566 162.828 91.2725 161.145 92.5204L159.61 88.9122C161.475 87.4438 164.752 86.3874 167.832 86.2698C174.516 86.0147 177.695 90.026 177.864 94.4424C178.015 98.3949 175.915 101.327 173.252 104.746C170.81 107.865 169.978 110.458 170.266 113.415L170.381 114.924L165.848 115.097ZM164.88 123.283C164.831 122.81 164.88 122.332 165.025 121.879C165.17 121.426 165.407 121.008 165.722 120.651C166.036 120.295 166.421 120.007 166.853 119.807C167.284 119.607 167.752 119.498 168.228 119.488C170.262 119.411 171.714 120.868 171.796 123.019C171.833 123.484 171.776 123.952 171.628 124.395C171.479 124.837 171.243 125.245 170.933 125.594C170.622 125.943 170.245 126.226 169.823 126.425C169.401 126.625 168.943 126.736 168.476 126.754C168.01 126.772 167.544 126.695 167.108 126.529C166.672 126.362 166.274 126.109 165.938 125.785C165.602 125.461 165.336 125.072 165.154 124.642C164.972 124.212 164.879 123.75 164.88 123.283Z" fill="#D0CDE1"/>
<path d="M341.059 104.054L340.91 102.863C340.506 100.394 341.331 97.6482 343.805 94.7935C346.033 92.2696 347.254 90.4288 347.175 88.3613C347.085 86.0183 345.375 84.5193 342.124 84.5974C340.265 84.6616 338.468 85.2277 336.969 86.2206L335.621 83.3734C337.281 82.2055 340.193 81.3582 342.926 81.2538C348.857 81.0273 351.664 84.1872 351.797 87.6785C351.916 90.803 350.042 93.129 347.667 95.842C345.489 98.3175 344.741 100.371 344.985 102.708L345.082 103.9L341.059 104.054ZM340.17 110.53C340.128 110.156 340.174 109.778 340.304 109.419C340.434 109.06 340.646 108.729 340.926 108.446C341.207 108.163 341.549 107.934 341.933 107.774C342.316 107.614 342.732 107.527 343.154 107.517C344.959 107.448 346.243 108.595 346.308 110.295C346.339 110.663 346.286 111.033 346.153 111.384C346.019 111.734 345.808 112.058 345.532 112.335C345.255 112.612 344.919 112.837 344.544 112.996C344.169 113.155 343.762 113.245 343.348 113.261C342.934 113.277 342.521 113.218 342.135 113.088C341.748 112.958 341.396 112.759 341.1 112.504C340.803 112.249 340.567 111.942 340.408 111.603C340.248 111.264 340.167 110.899 340.17 110.53Z" fill="#D0CDE1"/>
<path d="M254.145 187.086C278.477 186.157 297.45 165.678 296.521 141.346C295.592 117.013 275.113 98.0409 250.781 98.9699C226.448 99.899 207.476 120.378 208.405 144.71C209.334 169.043 229.812 188.015 254.145 187.086Z" fill="#2F2E41"/>
<path d="M237.75 204.011L224.488 202.13L227.709 174.466L240.971 176.347L237.75 204.011Z" fill="#2F2E41"/>
<path d="M267.495 180.109L254.233 178.228L250.863 201.989L264.124 203.87L267.495 180.109Z" fill="#2F2E41"/>
<path d="M272.977 204.819C273.348 202.538 268.715 199.886 262.63 198.898C256.546 197.91 251.312 198.958 250.942 201.24C250.571 203.522 255.203 206.173 261.288 207.161C267.373 208.15 272.606 207.101 272.977 204.819Z" fill="#2F2E41"/>
<path d="M245.517 205.156C245.733 202.854 240.932 200.521 234.795 199.946C228.657 199.37 223.506 200.769 223.29 203.07C223.074 205.372 227.875 207.705 234.013 208.28C240.15 208.856 245.301 207.457 245.517 205.156Z" fill="#2F2E41"/>
<path d="M255.711 147.191C264.027 146.874 270.511 139.875 270.193 131.558C269.876 123.242 262.877 116.758 254.561 117.075C246.245 117.393 239.76 124.392 240.078 132.708C240.395 141.024 247.394 147.509 255.711 147.191Z" fill="white"/>
<path d="M261.309 131.519C264.081 131.413 266.242 129.08 266.136 126.308C266.031 123.536 263.698 121.375 260.926 121.48C258.153 121.586 255.992 123.919 256.098 126.691C256.204 129.463 258.537 131.625 261.309 131.519Z" fill="#3F3D56"/>
<path d="M294.639 140.13C306.394 136.959 315.116 131.396 314.121 127.706C313.125 124.016 302.789 123.595 291.034 126.766C279.279 129.937 270.557 135.499 271.552 139.189C272.548 142.88 282.884 143.301 294.639 140.13Z" fill="#2F2E41"/>
<path d="M208.705 157.814C220.46 154.643 229.182 149.081 228.186 145.391C227.191 141.701 216.855 141.28 205.1 144.451C193.345 147.622 184.622 153.184 185.618 156.874C186.613 160.564 196.95 160.985 208.705 157.814Z" fill="#2F2E41"/>
<path d="M241.026 160.853C240.841 162.159 240.915 163.489 241.244 164.767C241.572 166.044 242.149 167.245 242.942 168.299C243.734 169.354 244.727 170.242 245.863 170.913C246.999 171.584 248.255 172.025 249.562 172.21C250.868 172.396 252.198 172.322 253.475 171.993C254.753 171.664 255.953 171.087 257.008 170.295C258.063 169.502 258.951 168.51 259.622 167.374C260.293 166.238 260.734 164.981 260.919 163.675C261.698 158.182 257.407 156.412 251.913 155.633C246.42 154.854 241.806 155.36 241.026 160.853Z" fill="white"/>
<path d="M116.584 28.7727C118.354 28.7051 119.734 27.2154 119.666 25.4452C119.599 23.6751 118.109 22.2949 116.339 22.3625C114.569 22.4301 113.189 23.9198 113.256 25.69C113.324 27.4601 114.814 28.8403 116.584 28.7727Z" fill="#3F3D56"/>
</g>
<defs>
<clipPath id="clip0">
<rect width="481" height="222.473" fill="white" transform="translate(0.930664 19.2568) rotate(-2.18653)"/>
</clipPath>
</defs>
</svg>
